# xmcd
#
# Track frame offsets:
#	150
#	15444
#	29227
#	38965
#	53013
#	63609
#	77920
#	89730
#	103412
#	116414
#
# Disc length: 1724 seconds
#
# Revision: 1
# Processed by: cddbd v1.4PL0 Copyright (c) Steve Scherf et al.
# Submitted via: audiograbber 1.80.04
#
DISCID=8a06ba0a
DTITLE=B.B. King - Inspiration
DYEAR=2001
DGENRE=Blues
TTITLE0=Precious Lord
TTITLE1=Servant's Prayer
TTITLE2=Swing Low, Sweet Chariot - Rock Me Lord
TTITLE3=Jesus Gave Me Water
TTITLE4=I'm Willing To Run All The Way
TTITLE5=Save A Seat For Me
TTITLE6=I Never Heard A Man
TTITLE7=Army Of The Lord
TTITLE8=I'm Working On The Building
TTITLE9=Please Love Me
EXTD=Delta Entertainment Corp.
EXTT0=
EXTT1=
EXTT2=
EXTT3=
EXTT4=
EXTT5=
EXTT6=
EXTT7=
EXTT8=
EXTT9=
PLAYORDER=
